<svg width="24" height="24" viewBox="0 0 24 24" fill="none" xmlns="http://www.w3.org/2000/svg">
<g clip-path="url(#clip0_35_189)">
<path d="M4.00002 6.41396L0.757019 3.17196L2.17202 1.75696L5.41402 4.99996H20.656C20.8119 4.99995 20.9656 5.03637 21.1049 5.10633C21.2442 5.17628 21.3652 5.27782 21.4583 5.40285C21.5513 5.52789 21.6139 5.67294 21.6409 5.82644C21.668 5.97995 21.6588 6.13765 21.614 6.28696L19.214 14.287C19.1523 14.493 19.0257 14.6737 18.8531 14.8022C18.6806 14.9306 18.4712 15 18.256 15H6.00002V17H17V19H5.00002C4.7348 19 4.48045 18.8946 4.29291 18.7071C4.10538 18.5195 4.00002 18.2652 4.00002 18V6.41396ZM6.00002 6.99996V13H17.512L19.312 6.99996H6.00002ZM5.50002 23C5.10219 23 4.72066 22.8419 4.43936 22.5606C4.15805 22.2793 4.00002 21.8978 4.00002 21.5C4.00002 21.1021 4.15805 20.7206 4.43936 20.4393C4.72066 20.158 5.10219 20 5.50002 20C5.89784 20 6.27938 20.158 6.56068 20.4393C6.84198 20.7206 7.00002 21.1021 7.00002 21.5C7.00002 21.8978 6.84198 22.2793 6.56068 22.5606C6.27938 22.8419 5.89784 23 5.50002 23ZM17.5 23C17.1022 23 16.7207 22.8419 16.4394 22.5606C16.1581 22.2793 16 21.8978 16 21.5C16 21.1021 16.1581 20.7206 16.4394 20.4393C16.7207 20.158 17.1022 20 17.5 20C17.8978 20 18.2794 20.158 18.5607 20.4393C18.842 20.7206 19 21.1021 19 21.5C19 21.8978 18.842 22.2793 18.5607 22.5606C18.2794 22.8419 17.8978 23 17.5 23Z" fill="#2E2E2E"/>
</g>
<defs>
<clipPath id="clip0_35_189">
<rect width="24" height="24" fill="white"/>
</clipPath>
</defs>
</svg>